<svg xmlns="http://www.w3.org/2000/svg" xmlns:xlink="http://www.w3.org/1999/xlink" xml:space="preserve" width="100%" height="100%" version="1.1" style="shape-rendering:geometricPrecision; text-rendering:geometricPrecision; image-rendering:optimizeQuality; fill-rule:evenodd; clip-rule:evenodd" viewBox="0 0 3000 3000">
 <defs>
  <style type="text/css">
   <![CDATA[
    .background {fill:#40489A}
    .flame {fill:#D64448}
    .jar {fill:#FFFFFF}
    .ring {fill:none}
   ]]>
  </style>
 </defs>
 <g id="logo">
  <circle class="background" cx="1500" cy="1500" r="1500"/>
  <path class="flame" d="M1355 932c0,-46 -38,-69 -38,-176 0,-107 63,-177 107,-179 -24,-50 28,-235 141,-261 -41,167 125,289 125,446 0,103 -29,135 -39,171l-295 0 0 0z"/>
  <path class="jar" d="M1917 1999c38,-48 81,-105 130,-145 76,-60 149,-133 185,-282 36,-149 -8,-253 -97,-346 -77,-80 -229,-79 -341,-67 -31,-57 -53,-118 -53,-195l-472 0c0,77 -22,138 -53,195 -113,-12 -265,-14 -341,67 -89,93 -133,197 -97,346 36,149 109,221 185,282 50,39 92,97 130,145 74,216 175,433 175,644 0,0 144,0 198,0 55,0 76,0 76,0 55,0 198,0 198,0 0,-211 101,-428 175,-644l0 0zm-26 -691c47,-46 119,-22 161,23 48,52 76,113 52,209 -16,66 -63,111 -112,151 2,-24 3,-47 3,-70 0,-137 -49,-229 -104,-313l0 0zm-770 0c-55,83 -104,176 -104,313 0,23 1,47 3,70 -49,-40 -96,-85 -112,-151 -24,-97 4,-157 52,-209 42,-45 113,-69 161,-23l0 0z"/>
  <circle class="ring" stroke="#DEB32A" stroke-width="83"  cx="1500" cy="1500" r="1354.5"/>
 </g>
</svg>
